# xmcd
#
# Track frame offsets: 
#        150
#        22012
#        42665
#        58902
#        76937
#        103060
#        117617
#        139000
#        152805
#        168707
#        191417
#
# Disc length: 2824 seconds
#
# Revision: 3
# Processed by: cddbd v1.5.2PL0 Copyright (c) Steve Scherf et al.
# Submitted via: ExactAudioCopy v1.0b3
#
DISCID=9e0b060b
DTITLE=Olu Dara - In The World - From Natchez To New York
DYEAR=1998
DGENRE=blues
TTITLE0=Okra
TTITLE1=Rain Shower
TTITLE2=Natchez Shopping Blues
TTITLE3=Your Lips
TTITLE4=Harlem Country Girl
TTITLE5=Zora
TTITLE6=Young Mama
TTITLE7=Bubber (If Only)
TTITLE8=Father Blues
TTITLE9=Jungle Jay
TTITLE10=Kiane
EXTD=
EXTT0=
EXTT1=
EXTT2=
EXTT3=
EXTT4=
EXTT5=
EXTT6=
EXTT7=
EXTT8=
EXTT9=
EXTT10=
PLAYORDER=
